<?xml version="1.0" encoding="UTF-8" standalone="no"?>
<!DOCTYPE svg PUBLIC "-//W3C//DTD SVG 1.1//EN"
 "http://www.w3.org/Graphics/SVG/1.1/DTD/svg11.dtd">
<!-- Generated by graphviz version 2.40.1 (20161225.0304)
 -->
<!-- Title: include/tvm/auto_scheduler/transform_step.h Pages: 1 -->
<svg width="670pt" height="374pt"
 viewBox="0.00 0.00 670.00 374.00" xmlns="http://www.w3.org/2000/svg" xmlns:xlink="http://www.w3.org/1999/xlink">
<g id="graph0" class="graph" transform="scale(1 1) rotate(0) translate(4 370)">
<title>include/tvm/auto_scheduler/transform_step.h</title>
<polygon fill="#ffffff" stroke="transparent" points="-4,4 -4,-370 666,-370 666,4 -4,4"/>
<!-- Node65 -->
<g id="node1" class="node">
<title>Node65</title>
<polygon fill="#bfbfbf" stroke="#000000" points="184,-335.5 184,-365.5 336,-365.5 336,-335.5 184,-335.5"/>
<text text-anchor="start" x="192" y="-353.5" font-family="Helvetica,sans-Serif" font-size="10.00" fill="#000000">include/tvm/auto_scheduler</text>
<text text-anchor="middle" x="260" y="-342.5" font-family="Helvetica,sans-Serif" font-size="10.00" fill="#000000">/transform_step.h</text>
</g>
<!-- Node66 -->
<g id="node2" class="node">
<title>Node66</title>
<g id="a_node2"><a xlink:href="loop__state_8h.html" target="_top" xlink:title="The definition of the &quot;state&quot; in the search. ">
<polygon fill="#ffffff" stroke="#000000" points="184,-268.5 184,-298.5 336,-298.5 336,-268.5 184,-268.5"/>
<text text-anchor="start" x="192" y="-286.5" font-family="Helvetica,sans-Serif" font-size="10.00" fill="#000000">include/tvm/auto_scheduler</text>
<text text-anchor="middle" x="260" y="-275.5" font-family="Helvetica,sans-Serif" font-size="10.00" fill="#000000">/loop_state.h</text>
</a>
</g>
</g>
<!-- Node65&#45;&gt;Node66 -->
<g id="edge1" class="edge">
<title>Node65&#45;&gt;Node66</title>
<path fill="none" stroke="#191970" d="M260,-325.0249C260,-316.128 260,-306.4287 260,-298.6432"/>
<polygon fill="#191970" stroke="#191970" points="256.5001,-325.2966 260,-335.2967 263.5001,-325.2967 256.5001,-325.2966"/>
</g>
<!-- Node67 -->
<g id="node3" class="node">
<title>Node67</title>
<g id="a_node3"><a xlink:href="compute__dag_8h.html" target="_top" xlink:title="The auto&#45;scheduler&#39;s computational graph and related program analyses. ">
<polygon fill="#ffffff" stroke="#000000" points="288,-201.5 288,-231.5 440,-231.5 440,-201.5 288,-201.5"/>
<text text-anchor="start" x="296" y="-219.5" font-family="Helvetica,sans-Serif" font-size="10.00" fill="#000000">include/tvm/auto_scheduler</text>
<text text-anchor="middle" x="364" y="-208.5" font-family="Helvetica,sans-Serif" font-size="10.00" fill="#000000">/compute_dag.h</text>
</a>
</g>
</g>
<!-- Node66&#45;&gt;Node67 -->
<g id="edge2" class="edge">
<title>Node66&#45;&gt;Node67</title>
<path fill="none" stroke="#191970" d="M292.139,-262.7951C307.7223,-252.7558 326.1061,-240.9124 340.3784,-231.7177"/>
<polygon fill="#191970" stroke="#191970" points="289.8506,-260.1058 283.3396,-268.4639 293.6417,-265.9904 289.8506,-260.1058"/>
</g>
<!-- Node71 -->
<g id="node7" class="node">
<title>Node71</title>
<g id="a_node7"><a xlink:href="measure_8h.html" target="_top" xlink:title="Distributed measurement infrastructure to measure the runtime costs of tensor programs. These functions are responsible for building the tvm module, uploading it to remote devices, recording the running time costs, and checking the correctness of the output. ">
<polygon fill="#ffffff" stroke="#000000" points="220,-67.5 220,-97.5 372,-97.5 372,-67.5 220,-67.5"/>
<text text-anchor="start" x="228" y="-85.5" font-family="Helvetica,sans-Serif" font-size="10.00" fill="#000000">include/tvm/auto_scheduler</text>
<text text-anchor="middle" x="296" y="-74.5" font-family="Helvetica,sans-Serif" font-size="10.00" fill="#000000">/measure.h</text>
</a>
</g>
</g>
<!-- Node66&#45;&gt;Node71 -->
<g id="edge13" class="edge">
<title>Node66&#45;&gt;Node71</title>
<path fill="none" stroke="#191970" d="M245.1542,-259.1604C228.5372,-228.5216 206.4658,-174.9494 227,-134 234.9065,-118.2327 250.1842,-106.0591 264.3579,-97.5161"/>
<polygon fill="#191970" stroke="#191970" points="242.3286,-261.2744 250.2968,-268.2572 248.4223,-257.8295 242.3286,-261.2744"/>
</g>
<!-- Node68 -->
<g id="node4" class="node">
<title>Node68</title>
<g id="a_node4"><a xlink:href="cost__model_8h.html" target="_top" xlink:title="Cost models that estimate the performance of programs. ">
<polygon fill="#ffffff" stroke="#000000" points="340,-.5 340,-30.5 492,-30.5 492,-.5 340,-.5"/>
<text text-anchor="start" x="348" y="-18.5" font-family="Helvetica,sans-Serif" font-size="10.00" fill="#000000">include/tvm/auto_scheduler</text>
<text text-anchor="middle" x="416" y="-7.5" font-family="Helvetica,sans-Serif" font-size="10.00" fill="#000000">/cost_model.h</text>
</a>
</g>
</g>
<!-- Node67&#45;&gt;Node68 -->
<g id="edge3" class="edge">
<title>Node67&#45;&gt;Node68</title>
<path fill="none" stroke="#191970" d="M382.1429,-193.0339C387.7853,-184.6159 393.4509,-174.7793 397,-165 413.9588,-118.2713 416.2104,-58.5546 416.2442,-30.8691"/>
<polygon fill="#191970" stroke="#191970" points="379.265,-191.0417 376.361,-201.2308 384.9852,-195.0766 379.265,-191.0417"/>
</g>
<!-- Node69 -->
<g id="node5" class="node">
<title>Node69</title>
<g id="a_node5"><a xlink:href="auto__scheduler_2feature_8h.html" target="_top" xlink:title="Feature extraction for the cost model. We extract one feature vector per BufferStoreNode statement in...">
<polygon fill="#ffffff" stroke="#000000" points="510,-.5 510,-30.5 662,-30.5 662,-.5 510,-.5"/>
<text text-anchor="start" x="518" y="-18.5" font-family="Helvetica,sans-Serif" font-size="10.00" fill="#000000">include/tvm/auto_scheduler</text>
<text text-anchor="middle" x="586" y="-7.5" font-family="Helvetica,sans-Serif" font-size="10.00" fill="#000000">/feature.h</text>
</a>
</g>
</g>
<!-- Node67&#45;&gt;Node69 -->
<g id="edge4" class="edge">
<title>Node67&#45;&gt;Node69</title>
<path fill="none" stroke="#191970" d="M388.2972,-194.5012C433.7686,-153.3311 530.6254,-65.6365 569.4231,-30.5088"/>
<polygon fill="#191970" stroke="#191970" points="385.75,-192.086 380.6861,-201.3923 390.4482,-197.2751 385.75,-192.086"/>
</g>
<!-- Node70 -->
<g id="node6" class="node">
<title>Node70</title>
<g id="a_node6"><a xlink:href="search__task_8h.html" target="_top" xlink:title="Meta information and hardware parameters for a search task. ">
<polygon fill="#ffffff" stroke="#000000" points="236,-134.5 236,-164.5 388,-164.5 388,-134.5 236,-134.5"/>
<text text-anchor="start" x="244" y="-152.5" font-family="Helvetica,sans-Serif" font-size="10.00" fill="#000000">include/tvm/auto_scheduler</text>
<text text-anchor="middle" x="312" y="-141.5" font-family="Helvetica,sans-Serif" font-size="10.00" fill="#000000">/search_task.h</text>
</a>
</g>
</g>
<!-- Node67&#45;&gt;Node70 -->
<g id="edge5" class="edge">
<title>Node67&#45;&gt;Node70</title>
<path fill="none" stroke="#191970" d="M346.0335,-193.3509C338.6583,-183.8482 330.3266,-173.1132 323.7529,-164.6432"/>
<polygon fill="#191970" stroke="#191970" points="343.3042,-195.5427 352.2004,-201.2967 348.8341,-191.2508 343.3042,-195.5427"/>
</g>
<!-- Node70&#45;&gt;Node71 -->
<g id="edge6" class="edge">
<title>Node70&#45;&gt;Node71</title>
<path fill="none" stroke="#191970" d="M305.9864,-124.3179C303.8427,-115.3414 301.4959,-105.5143 299.6163,-97.6432"/>
<polygon fill="#191970" stroke="#191970" points="302.6423,-125.3831 308.3694,-134.2967 309.4508,-123.7572 302.6423,-125.3831"/>
</g>
<!-- Node74 -->
<g id="node10" class="node">
<title>Node74</title>
<g id="a_node10"><a xlink:href="search__policy_8h.html" target="_top" xlink:title="The base class of search policies, including the abstract definition of search policy and other suppo...">
<polygon fill="#ffffff" stroke="#000000" points="33,-67.5 33,-97.5 185,-97.5 185,-67.5 33,-67.5"/>
<text text-anchor="start" x="41" y="-85.5" font-family="Helvetica,sans-Serif" font-size="10.00" fill="#000000">include/tvm/auto_scheduler</text>
<text text-anchor="middle" x="109" y="-74.5" font-family="Helvetica,sans-Serif" font-size="10.00" fill="#000000">/search_policy.h</text>
</a>
</g>
</g>
<!-- Node70&#45;&gt;Node74 -->
<g id="edge11" class="edge">
<title>Node70&#45;&gt;Node74</title>
<path fill="none" stroke="#191970" d="M256.7837,-131.2759C224.7904,-120.7165 184.9901,-107.5805 154.7559,-97.6017"/>
<polygon fill="#191970" stroke="#191970" points="255.8497,-134.6533 266.4428,-134.4639 258.0437,-128.006 255.8497,-134.6533"/>
</g>
<!-- Node71&#45;&gt;Node68 -->
<g id="edge8" class="edge">
<title>Node71&#45;&gt;Node68</title>
<path fill="none" stroke="#191970" d="M332.0786,-62.3561C350.2695,-52.1995 371.9685,-40.0843 388.7444,-30.7177"/>
<polygon fill="#191970" stroke="#191970" points="329.9554,-59.5329 322.9303,-67.4639 333.3679,-65.6448 329.9554,-59.5329"/>
</g>
<!-- Node71&#45;&gt;Node69 -->
<g id="edge9" class="edge">
<title>Node71&#45;&gt;Node69</title>
<path fill="none" stroke="#191970" d="M371.0835,-65.1531C417.4909,-54.4314 476.4599,-40.8075 520.8852,-30.5438"/>
<polygon fill="#191970" stroke="#191970" points="370.0371,-61.8026 361.0817,-67.4639 371.6129,-68.6229 370.0371,-61.8026"/>
</g>
<!-- Node72 -->
<g id="node8" class="node">
<title>Node72</title>
<g id="a_node8"><a xlink:href="auto__schedule_8h.html" target="_top" xlink:title="The user interface of the auto scheduler. ">
<polygon fill="#ffffff" stroke="#000000" points="0,-.5 0,-30.5 152,-30.5 152,-.5 0,-.5"/>
<text text-anchor="start" x="8" y="-18.5" font-family="Helvetica,sans-Serif" font-size="10.00" fill="#000000">include/tvm/auto_scheduler</text>
<text text-anchor="middle" x="76" y="-7.5" font-family="Helvetica,sans-Serif" font-size="10.00" fill="#000000">/auto_schedule.h</text>
</a>
</g>
</g>
<!-- Node71&#45;&gt;Node72 -->
<g id="edge7" class="edge">
<title>Node71&#45;&gt;Node72</title>
<path fill="none" stroke="#191970" d="M237.0545,-64.5484C202.2315,-53.9432 158.6363,-40.6665 125.5876,-30.6017"/>
<polygon fill="#191970" stroke="#191970" points="236.0418,-67.8987 246.6277,-67.4639 238.0812,-61.2023 236.0418,-67.8987"/>
</g>
<!-- Node73 -->
<g id="node9" class="node">
<title>Node73</title>
<g id="a_node9"><a xlink:href="measure__record_8h.html" target="_top" xlink:title="Json serialization format for dumping and loading measurement records. ">
<polygon fill="#ffffff" stroke="#000000" points="170,-.5 170,-30.5 322,-30.5 322,-.5 170,-.5"/>
<text text-anchor="start" x="178" y="-18.5" font-family="Helvetica,sans-Serif" font-size="10.00" fill="#000000">include/tvm/auto_scheduler</text>
<text text-anchor="middle" x="246" y="-7.5" font-family="Helvetica,sans-Serif" font-size="10.00" fill="#000000">/measure_record.h</text>
</a>
</g>
</g>
<!-- Node71&#45;&gt;Node73 -->
<g id="edge10" class="edge">
<title>Node71&#45;&gt;Node73</title>
<path fill="none" stroke="#191970" d="M278.5094,-59.0626C271.4713,-49.6315 263.5579,-39.0276 257.3009,-30.6432"/>
<polygon fill="#191970" stroke="#191970" points="275.8683,-61.3756 284.6542,-67.2967 281.4784,-57.189 275.8683,-61.3756"/>
</g>
<!-- Node74&#45;&gt;Node72 -->
<g id="edge12" class="edge">
<title>Node74&#45;&gt;Node72</title>
<path fill="none" stroke="#191970" d="M97.028,-58.1932C92.4923,-48.9844 87.4618,-38.771 83.4586,-30.6432"/>
<polygon fill="#191970" stroke="#191970" points="93.9534,-59.8723 101.5118,-67.2967 100.2331,-56.7793 93.9534,-59.8723"/>
</g>
</g>
</svg>
